<mxfile host="app.diagrams.net" modified="2020-08-04T06:16:05.959Z" agent="5.0 (Windows NT 10.0; Win64; x64) AppleWebKit/537.36 (KHTML, like Gecko) Chrome/81.0.4044.138 Safari/537.36" etag="sviKY66xTKjTpjuhGIfl" version="13.5.8" type="github">
  <diagram id="C5RBs43oDa-KdzZeNtuy" name="Page-1">
    <mxGraphModel dx="1038" dy="676" grid="1" gridSize="10" guides="1" tooltips="1" connect="1" arrows="1" fold="1" page="1" pageScale="1" pageWidth="827" pageHeight="1169" math="0" shadow="0">
      <root>
        <mxCell id="WIyWlLk6GJQsqaUBKTNV-0" />
        <mxCell id="WIyWlLk6GJQsqaUBKTNV-1" parent="WIyWlLk6GJQsqaUBKTNV-0" />
        <mxCell id="A-uako959lx0FlKWSPSl-1" style="edgeStyle=orthogonalEdgeStyle;rounded=0;orthogonalLoop=1;jettySize=auto;html=1;" edge="1" parent="WIyWlLk6GJQsqaUBKTNV-1" source="A-uako959lx0FlKWSPSl-0" target="A-uako959lx0FlKWSPSl-2">
          <mxGeometry relative="1" as="geometry">
            <mxPoint x="420" y="150" as="targetPoint" />
          </mxGeometry>
        </mxCell>
        <mxCell id="A-uako959lx0FlKWSPSl-0" value="开始" style="rounded=1;whiteSpace=wrap;html=1;" vertex="1" parent="WIyWlLk6GJQsqaUBKTNV-1">
          <mxGeometry x="360" y="40" width="120" height="60" as="geometry" />
        </mxCell>
        <mxCell id="A-uako959lx0FlKWSPSl-4" style="edgeStyle=orthogonalEdgeStyle;rounded=0;orthogonalLoop=1;jettySize=auto;html=1;" edge="1" parent="WIyWlLk6GJQsqaUBKTNV-1" source="A-uako959lx0FlKWSPSl-2">
          <mxGeometry relative="1" as="geometry">
            <mxPoint x="420" y="250" as="targetPoint" />
          </mxGeometry>
        </mxCell>
        <mxCell id="A-uako959lx0FlKWSPSl-2" value="请求数据" style="shape=parallelogram;perimeter=parallelogramPerimeter;whiteSpace=wrap;html=1;fixedSize=1;" vertex="1" parent="WIyWlLk6GJQsqaUBKTNV-1">
          <mxGeometry x="360" y="150" width="120" height="50" as="geometry" />
        </mxCell>
        <mxCell id="A-uako959lx0FlKWSPSl-7" style="edgeStyle=orthogonalEdgeStyle;rounded=0;orthogonalLoop=1;jettySize=auto;html=1;entryX=0.5;entryY=0;entryDx=0;entryDy=0;" edge="1" parent="WIyWlLk6GJQsqaUBKTNV-1" source="A-uako959lx0FlKWSPSl-5" target="A-uako959lx0FlKWSPSl-6">
          <mxGeometry relative="1" as="geometry" />
        </mxCell>
        <mxCell id="A-uako959lx0FlKWSPSl-5" value="根据拿到的数据初始化界面UI" style="rounded=1;whiteSpace=wrap;html=1;" vertex="1" parent="WIyWlLk6GJQsqaUBKTNV-1">
          <mxGeometry x="360" y="250" width="120" height="60" as="geometry" />
        </mxCell>
        <mxCell id="A-uako959lx0FlKWSPSl-9" style="edgeStyle=orthogonalEdgeStyle;rounded=0;orthogonalLoop=1;jettySize=auto;html=1;entryX=1;entryY=0.5;entryDx=0;entryDy=0;" edge="1" parent="WIyWlLk6GJQsqaUBKTNV-1" source="A-uako959lx0FlKWSPSl-6" target="A-uako959lx0FlKWSPSl-8">
          <mxGeometry relative="1" as="geometry" />
        </mxCell>
        <mxCell id="A-uako959lx0FlKWSPSl-12" style="edgeStyle=orthogonalEdgeStyle;rounded=0;orthogonalLoop=1;jettySize=auto;html=1;entryX=0.5;entryY=0;entryDx=0;entryDy=0;" edge="1" parent="WIyWlLk6GJQsqaUBKTNV-1" source="A-uako959lx0FlKWSPSl-6" target="A-uako959lx0FlKWSPSl-11">
          <mxGeometry relative="1" as="geometry" />
        </mxCell>
        <mxCell id="A-uako959lx0FlKWSPSl-6" value="是否是第一次进入" style="rhombus;whiteSpace=wrap;html=1;" vertex="1" parent="WIyWlLk6GJQsqaUBKTNV-1">
          <mxGeometry x="380" y="360" width="80" height="80" as="geometry" />
        </mxCell>
        <mxCell id="A-uako959lx0FlKWSPSl-17" style="edgeStyle=orthogonalEdgeStyle;rounded=0;orthogonalLoop=1;jettySize=auto;html=1;entryX=0.5;entryY=0;entryDx=0;entryDy=0;" edge="1" parent="WIyWlLk6GJQsqaUBKTNV-1" source="A-uako959lx0FlKWSPSl-8" target="A-uako959lx0FlKWSPSl-14">
          <mxGeometry relative="1" as="geometry" />
        </mxCell>
        <mxCell id="A-uako959lx0FlKWSPSl-8" value="播放伊万对白" style="rounded=1;whiteSpace=wrap;html=1;" vertex="1" parent="WIyWlLk6GJQsqaUBKTNV-1">
          <mxGeometry x="170" y="370" width="120" height="60" as="geometry" />
        </mxCell>
        <mxCell id="A-uako959lx0FlKWSPSl-10" value="Yes" style="text;html=1;strokeColor=none;fillColor=none;align=center;verticalAlign=middle;whiteSpace=wrap;rounded=0;" vertex="1" parent="WIyWlLk6GJQsqaUBKTNV-1">
          <mxGeometry x="320" y="370" width="40" height="20" as="geometry" />
        </mxCell>
        <mxCell id="A-uako959lx0FlKWSPSl-15" style="edgeStyle=orthogonalEdgeStyle;rounded=0;orthogonalLoop=1;jettySize=auto;html=1;entryX=1;entryY=0.5;entryDx=0;entryDy=0;" edge="1" parent="WIyWlLk6GJQsqaUBKTNV-1" source="A-uako959lx0FlKWSPSl-11" target="A-uako959lx0FlKWSPSl-14">
          <mxGeometry relative="1" as="geometry" />
        </mxCell>
        <mxCell id="A-uako959lx0FlKWSPSl-19" style="edgeStyle=orthogonalEdgeStyle;rounded=0;orthogonalLoop=1;jettySize=auto;html=1;" edge="1" parent="WIyWlLk6GJQsqaUBKTNV-1" source="A-uako959lx0FlKWSPSl-11" target="A-uako959lx0FlKWSPSl-18">
          <mxGeometry relative="1" as="geometry" />
        </mxCell>
        <mxCell id="A-uako959lx0FlKWSPSl-11" value="是否是新CD进入" style="rhombus;whiteSpace=wrap;html=1;" vertex="1" parent="WIyWlLk6GJQsqaUBKTNV-1">
          <mxGeometry x="380" y="490" width="80" height="80" as="geometry" />
        </mxCell>
        <mxCell id="A-uako959lx0FlKWSPSl-13" value="No" style="text;html=1;strokeColor=none;fillColor=none;align=center;verticalAlign=middle;whiteSpace=wrap;rounded=0;" vertex="1" parent="WIyWlLk6GJQsqaUBKTNV-1">
          <mxGeometry x="420" y="450" width="40" height="20" as="geometry" />
        </mxCell>
        <mxCell id="A-uako959lx0FlKWSPSl-21" style="edgeStyle=orthogonalEdgeStyle;rounded=0;orthogonalLoop=1;jettySize=auto;html=1;entryX=0;entryY=0.5;entryDx=0;entryDy=0;" edge="1" parent="WIyWlLk6GJQsqaUBKTNV-1" source="A-uako959lx0FlKWSPSl-14" target="A-uako959lx0FlKWSPSl-18">
          <mxGeometry relative="1" as="geometry">
            <mxPoint x="230" y="750" as="targetPoint" />
            <Array as="points">
              <mxPoint x="230" y="660" />
            </Array>
          </mxGeometry>
        </mxCell>
        <mxCell id="A-uako959lx0FlKWSPSl-14" value="播放伊万对白" style="rounded=1;whiteSpace=wrap;html=1;" vertex="1" parent="WIyWlLk6GJQsqaUBKTNV-1">
          <mxGeometry x="170" y="500" width="120" height="60" as="geometry" />
        </mxCell>
        <mxCell id="A-uako959lx0FlKWSPSl-16" value="Yes" style="text;html=1;strokeColor=none;fillColor=none;align=center;verticalAlign=middle;whiteSpace=wrap;rounded=0;" vertex="1" parent="WIyWlLk6GJQsqaUBKTNV-1">
          <mxGeometry x="320" y="500" width="40" height="20" as="geometry" />
        </mxCell>
        <mxCell id="A-uako959lx0FlKWSPSl-23" style="edgeStyle=orthogonalEdgeStyle;rounded=0;orthogonalLoop=1;jettySize=auto;html=1;entryX=0.5;entryY=0;entryDx=0;entryDy=0;" edge="1" parent="WIyWlLk6GJQsqaUBKTNV-1" source="A-uako959lx0FlKWSPSl-18" target="A-uako959lx0FlKWSPSl-22">
          <mxGeometry relative="1" as="geometry" />
        </mxCell>
        <mxCell id="A-uako959lx0FlKWSPSl-18" value="显示当前处于监狱层的详细信息" style="rounded=1;whiteSpace=wrap;html=1;" vertex="1" parent="WIyWlLk6GJQsqaUBKTNV-1">
          <mxGeometry x="360" y="630" width="120" height="60" as="geometry" />
        </mxCell>
        <mxCell id="A-uako959lx0FlKWSPSl-20" value="No" style="text;html=1;strokeColor=none;fillColor=none;align=center;verticalAlign=middle;whiteSpace=wrap;rounded=0;" vertex="1" parent="WIyWlLk6GJQsqaUBKTNV-1">
          <mxGeometry x="420" y="585" width="40" height="20" as="geometry" />
        </mxCell>
        <mxCell id="A-uako959lx0FlKWSPSl-25" style="edgeStyle=orthogonalEdgeStyle;rounded=0;orthogonalLoop=1;jettySize=auto;html=1;entryX=0;entryY=0.5;entryDx=0;entryDy=0;" edge="1" parent="WIyWlLk6GJQsqaUBKTNV-1" source="A-uako959lx0FlKWSPSl-22" target="A-uako959lx0FlKWSPSl-24">
          <mxGeometry relative="1" as="geometry" />
        </mxCell>
        <mxCell id="A-uako959lx0FlKWSPSl-28" style="edgeStyle=orthogonalEdgeStyle;rounded=0;orthogonalLoop=1;jettySize=auto;html=1;entryX=0.5;entryY=0;entryDx=0;entryDy=0;" edge="1" parent="WIyWlLk6GJQsqaUBKTNV-1" source="A-uako959lx0FlKWSPSl-22" target="A-uako959lx0FlKWSPSl-27">
          <mxGeometry relative="1" as="geometry" />
        </mxCell>
        <mxCell id="A-uako959lx0FlKWSPSl-22" value="判断是否当前层" style="rhombus;whiteSpace=wrap;html=1;" vertex="1" parent="WIyWlLk6GJQsqaUBKTNV-1">
          <mxGeometry x="380" y="740" width="80" height="80" as="geometry" />
        </mxCell>
        <mxCell id="A-uako959lx0FlKWSPSl-38" style="edgeStyle=orthogonalEdgeStyle;rounded=0;orthogonalLoop=1;jettySize=auto;html=1;entryX=1;entryY=0.5;entryDx=0;entryDy=0;" edge="1" parent="WIyWlLk6GJQsqaUBKTNV-1" source="A-uako959lx0FlKWSPSl-24" target="A-uako959lx0FlKWSPSl-36">
          <mxGeometry relative="1" as="geometry">
            <mxPoint x="600" y="1140" as="targetPoint" />
            <Array as="points">
              <mxPoint x="600" y="1139" />
            </Array>
          </mxGeometry>
        </mxCell>
        <mxCell id="A-uako959lx0FlKWSPSl-24" value="按钮显示进入监狱" style="rounded=1;whiteSpace=wrap;html=1;" vertex="1" parent="WIyWlLk6GJQsqaUBKTNV-1">
          <mxGeometry x="540" y="750" width="120" height="60" as="geometry" />
        </mxCell>
        <mxCell id="A-uako959lx0FlKWSPSl-26" value="Yes" style="text;html=1;strokeColor=none;fillColor=none;align=center;verticalAlign=middle;whiteSpace=wrap;rounded=0;" vertex="1" parent="WIyWlLk6GJQsqaUBKTNV-1">
          <mxGeometry x="480" y="760" width="40" height="20" as="geometry" />
        </mxCell>
        <mxCell id="A-uako959lx0FlKWSPSl-31" style="edgeStyle=orthogonalEdgeStyle;rounded=0;orthogonalLoop=1;jettySize=auto;html=1;" edge="1" parent="WIyWlLk6GJQsqaUBKTNV-1" source="A-uako959lx0FlKWSPSl-27" target="A-uako959lx0FlKWSPSl-30">
          <mxGeometry relative="1" as="geometry" />
        </mxCell>
        <mxCell id="A-uako959lx0FlKWSPSl-34" style="edgeStyle=orthogonalEdgeStyle;rounded=0;orthogonalLoop=1;jettySize=auto;html=1;exitX=0.5;exitY=1;exitDx=0;exitDy=0;" edge="1" parent="WIyWlLk6GJQsqaUBKTNV-1" source="A-uako959lx0FlKWSPSl-27" target="A-uako959lx0FlKWSPSl-33">
          <mxGeometry relative="1" as="geometry" />
        </mxCell>
        <mxCell id="A-uako959lx0FlKWSPSl-27" value="是否是已通关&lt;br&gt;层" style="rhombus;whiteSpace=wrap;html=1;" vertex="1" parent="WIyWlLk6GJQsqaUBKTNV-1">
          <mxGeometry x="380" y="870" width="80" height="80" as="geometry" />
        </mxCell>
        <mxCell id="A-uako959lx0FlKWSPSl-29" value="Yes" style="text;html=1;strokeColor=none;fillColor=none;align=center;verticalAlign=middle;whiteSpace=wrap;rounded=0;" vertex="1" parent="WIyWlLk6GJQsqaUBKTNV-1">
          <mxGeometry x="420" y="830" width="40" height="20" as="geometry" />
        </mxCell>
        <mxCell id="A-uako959lx0FlKWSPSl-39" style="edgeStyle=orthogonalEdgeStyle;rounded=0;orthogonalLoop=1;jettySize=auto;html=1;entryX=-0.017;entryY=0.647;entryDx=0;entryDy=0;entryPerimeter=0;" edge="1" parent="WIyWlLk6GJQsqaUBKTNV-1" source="A-uako959lx0FlKWSPSl-30" target="A-uako959lx0FlKWSPSl-36">
          <mxGeometry relative="1" as="geometry">
            <Array as="points">
              <mxPoint x="250" y="1148" />
            </Array>
          </mxGeometry>
        </mxCell>
        <mxCell id="A-uako959lx0FlKWSPSl-30" value="显示已通关" style="rounded=1;whiteSpace=wrap;html=1;" vertex="1" parent="WIyWlLk6GJQsqaUBKTNV-1">
          <mxGeometry x="200" y="880" width="120" height="60" as="geometry" />
        </mxCell>
        <mxCell id="A-uako959lx0FlKWSPSl-32" value="Yes" style="text;html=1;strokeColor=none;fillColor=none;align=center;verticalAlign=middle;whiteSpace=wrap;rounded=0;" vertex="1" parent="WIyWlLk6GJQsqaUBKTNV-1">
          <mxGeometry x="340" y="890" width="40" height="20" as="geometry" />
        </mxCell>
        <mxCell id="A-uako959lx0FlKWSPSl-37" style="edgeStyle=orthogonalEdgeStyle;rounded=0;orthogonalLoop=1;jettySize=auto;html=1;entryX=0.5;entryY=0;entryDx=0;entryDy=0;" edge="1" parent="WIyWlLk6GJQsqaUBKTNV-1" source="A-uako959lx0FlKWSPSl-33" target="A-uako959lx0FlKWSPSl-36">
          <mxGeometry relative="1" as="geometry" />
        </mxCell>
        <mxCell id="A-uako959lx0FlKWSPSl-33" value="请通关前置关卡" style="rounded=1;whiteSpace=wrap;html=1;" vertex="1" parent="WIyWlLk6GJQsqaUBKTNV-1">
          <mxGeometry x="360" y="1000" width="120" height="60" as="geometry" />
        </mxCell>
        <mxCell id="A-uako959lx0FlKWSPSl-35" value="No" style="text;html=1;strokeColor=none;fillColor=none;align=center;verticalAlign=middle;whiteSpace=wrap;rounded=0;" vertex="1" parent="WIyWlLk6GJQsqaUBKTNV-1">
          <mxGeometry x="420" y="960" width="40" height="20" as="geometry" />
        </mxCell>
        <mxCell id="A-uako959lx0FlKWSPSl-36" value="结束" style="rounded=1;whiteSpace=wrap;html=1;" vertex="1" parent="WIyWlLk6GJQsqaUBKTNV-1">
          <mxGeometry x="360" y="1109" width="120" height="60" as="geometry" />
        </mxCell>
      </root>
    </mxGraphModel>
  </diagram>
</mxfile>
